<?xml version="1.0" encoding="utf-8"?>
<!-- Generator: Adobe Illustrator 23.0.1, SVG Export Plug-In . SVG Version: 6.00 Build 0)  -->
<svg width="5px" height="5px" version="1.1" id="Layer_1" xmlns="http://www.w3.org/2000/svg" xmlns:xlink="http://www.w3.org/1999/xlink" x="0px" y="0px"
	 viewBox="0 0 464.71 667.06" style="enable-background:new 0 0 164.71 167.06;" xml:space="preserve">
<style type="text/css">
	.st0{fill:none;stroke:#43B4E4;stroke-width:3.4987;stroke-linecap:round;stroke-miterlimit:10;}
	.st1{fill:none;stroke:#FFFFFF;stroke-width:4.3858;stroke-linecap:round;stroke-miterlimit:10;}
	.st2{fill:#5A4B9F;}
	.st3{fill:#46BFEF;}
	.st4{fill:#618ECA;}
	.st5{opacity:0.1;fill:#010101;}
	.st6{fill:#3F3361;}
	.st7{fill:none;stroke:#FFFFFF;stroke-width:7.3097;stroke-linecap:round;stroke-miterlimit:10;}
	.st8{opacity:0.29;}
	.st9{fill:#010101;}
	.st10{fill:none;stroke:#FFFFFF;stroke-width:4.4542;stroke-linecap:round;stroke-linejoin:round;stroke-miterlimit:10;}
	.st11{fill:#FAA952;}
	.st12{fill:#E79731;}
	.st13{fill:#F2D18E;}
	.st14{fill:#F1E4C9;}
	.st15{fill:#A56941;}
	.st16{fill:#965028;}
	.st17{fill:none;stroke:#965028;stroke-width:3.5346;stroke-miterlimit:10;}
</style>
<g>
	<g>
		<g>
			<g>
				<g>
					<polygon class="st0" points="151.68,524.73 140.75,497.42 160.86,475.96 171.79,503.26 					"/>
					<polygon class="st0" points="198.31,533.5 187.38,506.2 207.49,484.74 218.41,512.04 					"/>
					<polygon class="st0" points="175.45,529.2 164.52,501.9 184.63,480.44 195.56,507.74 					"/>
					<line class="st0" x1="175.45" y1="529.2" x2="164.67" y2="586.45"/>
					<line class="st0" x1="151.68" y1="524.73" x2="140.9" y2="581.98"/>
					<line class="st0" x1="198.31" y1="533.5" x2="187.53" y2="590.75"/>
				</g>
				<g>
					
						<rect x="125.4" y="480.29" transform="matrix(0.5641 0.8257 -0.8257 0.5641 473.381 98.9771)" class="st1" width="35.09" height="35.09"/>
					
						<rect x="198.68" y="494.09" transform="matrix(0.5641 0.8257 -0.8257 0.5641 516.7094 44.4877)" class="st1" width="35.09" height="35.09"/>
					
						<rect x="162.76" y="487.32" transform="matrix(0.5641 0.8257 -0.8257 0.5641 495.4681 71.1968)" class="st1" width="35.09" height="35.09"/>
					<line class="st1" x1="175.71" y1="529.25" x2="164.94" y2="586.5"/>
					<line class="st1" x1="138.36" y1="522.22" x2="127.58" y2="579.47"/>
					<line class="st1" x1="211.63" y1="536.01" x2="200.85" y2="593.26"/>
				</g>
				<path class="st2" d="M450.39,256.18c20.32-107.94-58.32-213.57-176.12-237.67C156.38-5.6,42.77,59.36,17.91,165.99
					c-16.98,72.83-2.38,149.92,46.8,208.09c29.07,34.39,46.88,75.43,49.91,118.19l0.3,4.25l126.33,23.78l1.87-3.95
					c18.17-38.3,48.94-70.17,88.18-91.25C396.13,390.26,437.05,327.03,450.39,256.18z"/>
				<path class="st3" d="M412.11,248.97c20.32-107.94-41.55-210.41-138.53-230.59C176.54-1.81,80.19,66.4,56.14,173.19
					c-16.42,72.93-6.78,149.09,32.17,205.33c23.02,33.25,36.48,73.47,37.63,115.87l0.11,4.21l104.06,19.59l1.68-3.99
					c16.3-38.65,42.86-71.31,76.1-93.52C362.8,383.99,398.78,319.83,412.11,248.97z"/>
				<path class="st4" d="M349.58,237.2c20.32-107.94-14.15-205.26-77.1-219.03c-63-13.78-131.15,59.73-153.87,166.77
					c-15.51,73.1-13.96,147.73,8.26,200.83c13.14,31.39,19.5,70.27,17.56,112.1l-0.19,4.15l67.68,12.74l1.37-4.05
					c13.26-39.23,32.92-73.18,56.35-97.24C308.33,373.73,336.24,308.06,349.58,237.2z"/>
				<path class="st2" d="M283.76,224.81c20.32-107.94,14.69-199.83-12.45-206.86c-27.16-7.04-65.64,72.06-86.95,179.37
					c-14.56,73.28-21.53,146.31-16.91,196.09c2.73,29.43,1.62,66.91-3.56,108.12l-0.51,4.09l29.39,5.53l1.04-4.11
					c10.05-39.83,22.46-75.15,35.56-101.15C251.01,362.94,270.42,295.67,283.76,224.81z"/>
				<path class="st5" d="M441.87,231.83c-25.93,47.4-62.22,85.8-108.88,115.21c-44.36,32.77-93.34,52.62-146.92,59.54
					c-29.98,9.2-60.32,13.81-91.03,13.83c11.06,22.72,17.82,46.99,19.58,71.85l0.3,4.25l126.33,23.78l1.87-3.95
					c18.17-38.3,48.94-70.17,88.18-91.25c64.82-34.82,105.74-98.05,119.08-168.91c2.53-13.42,3.52-26.8,3.1-40
					C449.79,221.48,445.93,226.71,441.87,231.83z"/>
				<g>
					<g>
						<path class="st6" d="M207.85,366.04C97.3,345.23,22.39,307.93,21.27,307.36c-2.88-1.46-4.04-4.98-2.58-7.86
							c1.46-2.88,4.98-4.04,7.86-2.58c1.65,0.83,167.2,83.18,369.3,69.57c3.22-0.22,6.01,2.22,6.23,5.44
							c0.22,3.22-2.22,6.01-5.44,6.23C327.94,382.79,263.4,376.5,207.85,366.04z"/>
					</g>
				</g>
				<line class="st7" x1="114.93" y1="496.51" x2="241.25" y2="520.29"/>
				<line class="st1" x1="26.05" y1="304.01" x2="113.7" y2="572.39"/>
				<line class="st1" x1="395.11" y1="373.48" x2="215.88" y2="591.63"/>
				<g class="st8">
					<path class="st9" d="M200.5,390.06c-0.01,0-0.02,0-0.03-0.01c-11.4-2.15-20.42-10.06-23.71-20.36
						c-7.29,7.99-18.8,11.43-30.06,8.62c-11.27-2.8-19.83-11.23-22.52-21.71c-7.74,7.56-19.43,10.33-30.53,6.87
						c-11.22-3.48-19.34-12.55-21.33-23.32c-8.61,5.86-22.16,3-32.91-2.21c-9.82-4.76-11.98-14.1-13.71-21.62
						c-0.68-2.95-1.32-5.73-2.32-7.85c-0.53-1.11-0.05-2.44,1.06-2.96c1.12-0.53,2.44-0.05,2.97,1.06c1.21,2.55,1.9,5.57,2.64,8.76
						c1.67,7.27,3.41,14.78,11.31,18.61c10.32,5,24.63,8.05,31,0.19c0.59-0.73,1.57-1.01,2.45-0.7c0.88,0.3,1.49,1.13,1.5,2.06
						c0.22,10.79,7.72,20.33,18.66,23.73c10.95,3.42,22.52-0.19,28.81-8.96c0.55-0.76,1.51-1.1,2.41-0.85
						c0.9,0.25,1.55,1.04,1.62,1.97c0.84,10.76,8.86,19.84,19.97,22.6c11.09,2.75,22.44-1.5,28.22-10.61
						c0.5-0.79,1.47-1.22,2.36-0.98c0.91,0.2,1.61,0.95,1.73,1.88c1.45,10.69,9.97,19.29,21.21,21.4c0.01,0,0.01,0,0.02,0
						c11.24,2.12,22.3-2.8,27.54-12.23c0.45-0.82,1.37-1.26,2.3-1.12c0.93,0.11,1.66,0.85,1.84,1.77
						c2.07,10.59,11.06,18.68,22.43,20.15c11.35,1.47,22.13-4.07,26.82-13.8c0.41-0.84,1.3-1.34,2.23-1.25
						c0.94,0.09,1.7,0.76,1.94,1.66c2.68,10.46,12.16,18.01,23.58,18.82c11.44,0.81,21.89-5.34,26.02-15.32
						c0.36-0.86,1.22-1.41,2.15-1.37c0.93,0.03,1.74,0.66,2.03,1.55c2.92,9.14,14.91,14.42,26.72,11.77
						c8.84-1.99,14.85-8.04,24.96-20.86c0.76-0.97,2.16-1.13,3.13-0.37c0.97,0.76,1.13,2.16,0.37,3.13
						c-10.78,13.67-17.31,20.16-27.47,22.45c-12.32,2.77-24.48-1.71-29.91-10.4c-5.78,9.25-16.61,14.7-28.29,13.87
						c-11.59-0.83-21.48-7.64-25.94-17.5c-6.32,8.78-17.36,13.52-28.88,12.03c-11.53-1.48-20.98-8.87-24.86-18.96
						C223.18,388.11,211.9,392.2,200.5,390.06z"/>
				</g>
				<path class="st10" d="M26.2,303.22c3.76,7.96,2.44,22.34,14.99,28.42c11.5,5.57,26.58,8.38,33.7-0.41
					c0.23,11.31,8.05,22.03,20.23,25.81c12.18,3.79,24.69-0.6,31.28-9.79c0.88,11.28,9.29,21.52,21.65,24.59
					c12.36,3.08,24.59-2.03,30.64-11.58c1.52,11.2,10.5,20.95,23.02,23.3c12.51,2.36,24.42-3.45,29.91-13.33
					c2.17,11.1,11.69,20.31,24.33,21.93c12.63,1.64,24.2-4.85,29.11-15.04c2.81,10.96,12.86,19.6,25.58,20.49
					c12.72,0.9,23.91-6.24,28.23-16.69c3.44,10.77,16.86,16.07,29.33,13.26c9.51-2.14,15.84-8.5,26.21-21.65"/>
				<g>
					<path class="st11" d="M189.64,653.44l-75.09-14.13c-4.02-0.76-6.67-4.63-5.91-8.65l11.58-61.52l89.65,16.87l-11.58,61.52
						C197.53,651.55,193.66,654.2,189.64,653.44z"/>
					<path class="st12" d="M193.68,582.96c0.65,4.97,0.64,10.1-0.09,15.25c-1.79,12.59-11.02,25.61-21.34,32.67
						c-10.8,7.38-25.34,10.42-38.19,8.01c-9.43-1.78-17.55-5.99-24.03-11.84c0.75,6.74,5.81,12.49,12.83,13.82l58.48,11.01
						c8.61,1.62,16.9-4.04,18.52-12.65l10.02-53.22L193.68,582.96z"/>
					
						<rect x="152.08" y="542.71" transform="matrix(0.185 -0.9827 0.9827 0.185 -445.3072 639.6973)" class="st12" width="21.88" height="91.22"/>
					<path class="st13" d="M207.49,600.83l-90.39-17.02c-4.07-0.77-6.75-4.69-5.99-8.76l0,0c0.77-4.07,4.69-6.75,8.76-5.99
						l90.39,17.02c4.07,0.77,6.75,4.69,5.99,8.76l0,0C215.48,598.92,211.56,601.6,207.49,600.83z"/>
					<path class="st14" d="M149.66,589.95l-19.53-3.68c-4.07-0.77-6.75-4.69-5.99-8.76l0,0c0.77-4.07,4.69-6.75,8.76-5.99
						l19.53,3.68c4.07,0.77,6.75,4.69,5.99,8.76l0,0C157.66,588.03,153.74,590.72,149.66,589.95z"/>
					<g>
						<path class="st15" d="M171.01,612.22c-1.19,6.32-7.28,10.48-13.6,9.29c-6.32-1.19-10.48-7.28-9.29-13.6
							c1.19-6.32,8.44-16.64,14.76-15.45C169.21,593.65,172.2,605.9,171.01,612.22z"/>
						<path class="st16" d="M168.45,597.4c0.43,9.51-6.63,19.64-18.73,17.36c-0.31-0.06-0.6-0.14-0.9-0.21
							c1.46,3.49,4.59,6.21,8.59,6.96c6.32,1.19,12.41-2.97,13.6-9.29C171.77,608.22,170.84,601.85,168.45,597.4z"/>
					</g>
					<g>
						<path class="st15" d="M126.77,603.89c-1.19,6.32-7.28,10.48-13.6,9.29c-6.32-1.19-10.48-7.28-9.29-13.6
							c1.19-6.32,8.44-16.64,14.76-15.45C124.96,585.32,127.96,597.57,126.77,603.89z"/>
						<path class="st16" d="M124.21,589.07c0.43,9.51-6.63,19.64-18.73,17.36c-0.31-0.06-0.6-0.14-0.9-0.21
							c1.46,3.49,4.59,6.21,8.59,6.96c6.32,1.19,12.41-2.97,13.6-9.29C127.53,599.89,126.59,593.52,124.21,589.07z"/>
					</g>
					<g>
						<path class="st15" d="M214.06,620.32c-1.19,6.32-7.28,10.48-13.6,9.29c-6.32-1.19-10.48-7.28-9.29-13.6
							c1.19-6.32,8.44-16.64,14.76-15.45C212.25,601.75,215.25,614,214.06,620.32z"/>
						<path class="st16" d="M211.5,605.5c0.43,9.51-6.63,19.64-18.73,17.36c-0.31-0.06-0.6-0.14-0.9-0.21
							c1.46,3.49,4.59,6.21,8.59,6.96c6.32,1.19,12.41-2.97,13.6-9.29C214.81,616.32,213.88,609.95,211.5,605.5z"/>
					</g>
					<path class="st17" d="M163.07,592.49c-2.26,11.99-13.81,19.88-25.8,17.62c-11.99-2.26-19.88-13.81-17.62-25.8"/>
					<path class="st17" d="M206.49,600.67c-2.26,11.99-13.81,19.88-25.8,17.62c-11.99-2.26-19.88-13.81-17.62-25.8"/>
				</g>
			</g>
		</g>
	</g>
</g>
</svg>
