<?xml version="1.0" encoding="utf-8"?>
<!-- Generator: Adobe Illustrator 23.0.1, SVG Export Plug-In . SVG Version: 6.00 Build 0)  -->
<svg version="1.1" id="Layer_1" xmlns="http://www.w3.org/2000/svg" xmlns:xlink="http://www.w3.org/1999/xlink" x="0px" y="0px"
	 viewBox="0 0 1000 670.4" style="enable-background:new 0 0 1000 670.4;" xml:space="preserve">
<style type="text/css">
	.st0{fill:#B5E2EA;}
	.st1{fill:#DB3227;}
	.st2{fill:none;stroke:#FFFFFF;stroke-width:1.1472;stroke-miterlimit:10;}
	.st3{fill:#EC6544;}
	.st4{fill:#F15B25;}
	.st5{fill:#00B8D4;}
</style>
<g>
	<path class="st0" d="M564.88,159.36c0,0-2.1-43.56-43.89-57.94c-41.79-14.38-226.34-72.01-226.34-72.01s-12.64-4.6-7.89,11.07
		c0,0,14.81,49.73,51.88,65.16c35.77,14.89,92.4,32.15,92.4,32.15l-92.49-20.64c0,0-17.09-3.48-7.1,12.92
		c9.81,16.09,18.05,33.1,37.89,41.55c15.24,6.49,65.17,16.07,65.17,16.07l-60.78-5.97c0,0-8.79-1.65-2.81,11.11
		c6.92,14.78,20.5,42.7,64.88,42.59c43.49-0.1,104.51-8.41,114.03-1.83c9.51,6.57,12.87,24.47,12.87,24.47s4.63,8.04,3.75-17.97
		L564.88,159.36z"/>
	<g>
		<g>
			<path class="st1" d="M937.48,332.9l24.32-20.73h-40.91l-7.87,9.53c-6.68-1.48-14.11-2.24-22.31-2.24
				c-40.91,0-63.26,18.78-63.26,52.48v108.53c0,33.69,22.35,52.48,63.26,52.48c40.91,0,63.26-18.78,63.26-52.48V371.93
				C953.97,354.98,948.31,341.81,937.48,332.9z M912.3,482.55c0,15.21-8.33,20.57-21.59,20.57c-13.26,0-21.59-5.37-21.59-20.57
				v-112.7c0-15.21,8.33-20.57,21.59-20.57c13.26,0,21.59,5.37,21.59,20.57V482.55z"/>
			<g>
				<g>
					<polygon class="st3" points="222.39,537.5 440.2,641.61 440.2,395.03 222.39,290.92 					"/>
				</g>
				<g>
					<polygon class="st4" points="222.39,290.92 440.2,395.03 658.01,290.92 440.2,189.55 					"/>
				</g>
				<path class="st5" d="M570.37,241.84c-8.97-4.17-17.94-8.35-26.91-12.52c-6.61-3.07-14.18-8.67-21.5-6.41
					c-10.85,3.35-21.85,11.3-31.88,16.49c-45.84,23.71-91.68,47.43-137.52,71.14c-12.69,6.57-25.39,13.13-38.08,19.7
					c-2.33,1.2-3.74,3.96-3.74,6.52c0,30.23,0,60.46,0,90.7c0,2.51,1.4,5.37,3.74,6.52c15.03,7.38,30.05,14.76,45.08,22.15
					c5.03,2.47,11.35-0.48,11.35-6.52c0-28.93,0-57.87,0-86.8c66.48-35.97,132.97-71.95,199.45-107.92
					c2.64-1.43,3.73-3.65,3.74-5.91C574.68,246.25,573.72,243.4,570.37,241.84z"/>
				<g>
					<polygon class="st1" points="658.01,290.92 440.2,395.03 440.2,641.61 544.95,591.54 544.95,589.47 544.95,520.3 492.3,404.99 
						535.86,384.95 567.68,465.42 599.49,355.67 639.26,337.36 586.62,501.13 586.62,570.3 586.62,571.62 658.01,537.5 					"/>
				</g>
			</g>
			<polygon class="st5" points="719.67,407.39 689.21,385.67 689.21,399.03 658.05,399.03 658.05,459.18 689.21,459.18 
				689.21,472.54 719.67,450.82 750.13,429.11 			"/>
		</g>
		<g>
			<path class="st1" d="M753.84,319.46c-40.91,0-62.12,18.78-62.12,52.47v4.46l41.66,29.7v-36.25c0-15.21,8.33-20.57,21.59-20.57
				c13.26,0,21.59,5.37,21.59,20.57v22.36h39.39v-20.27C815.96,338.24,794.75,319.46,753.84,319.46z"/>
			<path class="st1" d="M765.67,429.11l-21.01,14.98h31.9v38.46c0,15.21-8.33,20.27-21.59,20.27c-13.26,0-21.59-5.07-21.59-20.27
				v-30.42l-41.61,29.67c0.57,32.84,21.71,51.15,62.06,51.15c40.91,0,62.12-18.78,62.12-52.48v-66.19h-71.1L765.67,429.11z"/>
		</g>
	</g>
	<path class="st0" d="M379.08,330.69c0,0,2.49-55.73-49.03-79.02C278.53,228.39,50.28,133.05,50.28,133.05s-15.55-7.35-11.37,13.17
		c0,0,12.95,65.11,58.35,89.17c43.8,23.22,113.89,51.94,113.89,51.94L95.78,250.05c0,0-21.36-6.46-10.58,15.62
		c10.58,21.66,19.05,44.31,43.33,57.43c18.64,10.08,81.11,28.21,81.11,28.21l-76.71-14.82c0,0-10.99-3.15-4.9,13.81
		c7.05,19.65,21.04,56.83,77.58,61.97c55.42,5.04,134.13,1.71,145.47,11.21s13.49,32.7,13.49,32.7s4.95,10.79,6.91-22.44
		L379.08,330.69z"/>
</g>
</svg>
